<?xml version="1.0" standalone="no"?><!DOCTYPE svg PUBLIC "-//W3C//DTD SVG 1.1//EN" "http://www.w3.org/Graphics/SVG/1.1/DTD/svg11.dtd"><svg t="1724222762893" class="icon" viewBox="0 0 1024 1024" version="1.1" xmlns="http://www.w3.org/2000/svg" p-id="7999" xmlns:xlink="http://www.w3.org/1999/xlink" width="200" height="200"><path d="M341.333333 512H234.666667a21.333333 21.333333 0 1 1 0-42.666667H341.333333V362.666667a21.333333 21.333333 0 0 1 21.333334-21.333334h256a21.333333 21.333333 0 1 1 0 42.666667H512v106.666667a21.333333 21.333333 0 1 1-42.666667 0V384H384v213.333333h213.333333v-106.666666a21.333333 21.333333 0 0 1 21.333334-21.333334H725.333333V256H362.666667a21.333333 21.333333 0 0 1-21.333334-21.333333v-128a21.333333 21.333333 0 0 1 42.666667 0V213.333333h362.666667a21.333333 21.333333 0 0 1 21.333333 21.333334v256a21.333333 21.333333 0 0 1-21.333333 21.333333H640v106.666667a21.333333 21.333333 0 0 1-21.333333 21.333333H512v106.666667a21.333333 21.333333 0 1 1-42.666667 0V640H362.666667a21.333333 21.333333 0 0 1-21.333334-21.333333V512z m-213.333333 128v213.333333h469.333333v-106.666666a21.333333 21.333333 0 0 1 21.333334-21.333334H725.333333v-106.666666a21.333333 21.333333 0 1 1 42.666667 0v128a21.333333 21.333333 0 0 1-21.333333 21.333333H640v85.333333h213.333333V128h-362.666666a21.333333 21.333333 0 1 1 0-42.666667h384a21.333333 21.333333 0 0 1 21.333333 21.333334v768a21.333333 21.333333 0 0 1-21.333333 21.333333h-768a21.333333 21.333333 0 0 1-21.333334-21.333333v-768a21.333333 21.333333 0 0 1 21.333334-21.333334h128a21.333333 21.333333 0 0 1 21.333333 21.333334v256a21.333333 21.333333 0 0 1-42.666667 0V128H128v469.333333h106.666667a21.333333 21.333333 0 0 1 21.333333 21.333334V725.333333h106.666667a21.333333 21.333333 0 1 1 0 42.666667h-128a21.333333 21.333333 0 0 1-21.333334-21.333333V640H128z" fill="#000000" p-id="8000"></path></svg>